<?xml version="1.0" encoding="UTF-8"?>
<svg id="SVG" xmlns="http://www.w3.org/2000/svg" viewBox="0 0 115.46 28.36">
  <defs>
    <style>
      .cls-1 {
        fill: #0076b8;
      }

      .cls-2 {
        fill: #fff;
      }

      .cls-3 {
        fill: #716f6e;
      }
    </style>
  </defs>
  <rect id="ID" x=".98" y=".73" width="32.26" height="18.57"/>
  <g id="ID-2" data-name="ID">
    <rect id="I" class="cls-2" x="5.61" y="3.05" width="3.23" height="13.89"/>
    <path id="D" class="cls-2" d="m21.64,3.13h-7.91v13.78s9.25,0,9.25,0c0,0,8.28.02,7.43-7.96-.7-6.54-8.77-5.82-8.77-5.82Zm1.07,11.14l-5.77.02.03-8.65,6.29-.04s3.78-.24,3.89,4.15-4.43,4.52-4.43,4.52Z"/>
  </g>
  <rect id="TECH" class="cls-1" x="33.24" y=".73" width="81.39" height="18.57"/>
  <g id="TECH-2" data-name="TECH">
    <polygon id="T" class="cls-2" points="37.21 3.09 53.18 3.09 53.18 5.55 46.77 5.58 46.81 16.87 43.59 16.93 43.56 5.55 37.22 5.55 37.21 3.09"/>
    <polygon id="E" class="cls-2" points="55.91 3.1 70.05 3.17 70.05 5.42 59.05 5.35 59.05 8.5 65.49 8.5 65.49 10.87 59.08 10.87 59.08 14.33 70.17 14.33 70.17 16.93 55.91 16.93 55.91 3.1"/>
    <path id="C" class="cls-2" d="m86.49,11.28v3.02h-8.66V5.54h8.71v2.62l3.18-.49v-2.2s.28-2.41-3.21-2.37h-8.74c-2.06-.16-3.18.77-3.16,2.41v8.76s-.16,2.88,3.11,2.62h8.74s3.18.56,3.23-2.6v-2.3l-3.21-.73Z"/>
    <polygon id="H" class="cls-2" points="95.13 3.1 98.37 3.1 98.37 8.46 108.42 8.46 108.42 3.07 111.66 3.07 111.66 16.93 108.4 16.93 108.4 10.89 98.34 10.89 98.34 16.96 95.13 16.96 95.13 3.1"/>
  </g>
  <polygon id="Bottom" class="cls-3" points=".99 19.83 .99 27.37 114.64 27.37 114.64 19.85 .99 19.83"/>
  <g id="Bottom_Text" data-name="Bottom Text">
    <rect id="I-2" data-name="I" class="cls-2" x="3.26" y="21.39" width=".62" height="4.41"/>
    <path id="D-2" data-name="D" class="cls-2" d="m8.18,21.39h-1.71v4.36s1.99,0,1.99,0c0,0,1.79,0,1.6-2.52-.15-2.07-1.89-1.84-1.89-1.84Zm.24,3.89h-1.37v-3.41h1.12s1.23-.14,1.34,1.69c.09,1.41-1.09,1.72-1.09,1.72Z"/>
    <polygon id="E-2" data-name="E" class="cls-2" points="12.49 21.39 15.66 21.39 15.66 21.91 13.06 21.91 13.06 23.23 15.53 23.23 15.53 23.76 13.06 23.76 13.06 25.27 15.76 25.27 15.76 25.79 12.49 25.79 12.49 21.39"/>
    <polygon id="N" class="cls-2" points="18.13 21.39 18.79 21.39 21.03 24.77 21.03 21.39 21.64 21.39 21.64 25.8 20.97 25.8 18.71 22.34 18.69 25.8 18.13 25.8 18.13 21.39"/>
    <polygon id="T-2" data-name="T" class="cls-2" points="23.82 21.34 27.32 21.34 27.32 21.91 25.9 21.91 25.9 25.8 25.29 25.8 25.29 21.91 23.82 21.91 23.82 21.34"/>
    <rect id="I2" class="cls-2" x="29.6" y="21.39" width=".62" height="4.41"/>
    <polygon id="T2" class="cls-2" points="32.44 21.35 35.95 21.35 35.95 21.92 34.52 21.92 34.52 25.81 33.91 25.81 33.91 21.92 32.44 21.92 32.44 21.35"/>
    <polygon id="Y" class="cls-2" points="37.69 21.38 38.36 21.38 39.69 23.42 41.01 21.39 41.68 21.39 39.93 23.81 39.93 25.79 39.4 25.79 39.39 23.82 37.69 21.38"/>
    <path id="A" class="cls-2" d="m50.29,21.38h-.61l-1.71,4.4h.62l.49-1.37h1.84l.55,1.38h.64l-1.82-4.41Zm-1.04,2.6l.74-2.07.77,2.07h-1.51Z"/>
    <polygon id="N2" class="cls-2" points="54.09 21.35 54.75 21.35 57 24.73 57 21.35 57.6 21.35 57.6 25.77 56.93 25.77 54.67 22.31 54.66 25.77 54.09 25.77 54.09 21.35"/>
    <path id="D-3" data-name="D" class="cls-2" d="m61.88,21.42h-1.71v4.36s1.99,0,1.99,0c0,0,1.79,0,1.6-2.52-.15-2.07-1.89-1.84-1.89-1.84Zm.24,3.89h-1.37v-3.41h1.12s1.23-.14,1.34,1.69c.09,1.41-1.09,1.72-1.09,1.72Z"/>
    <path id="S" class="cls-2" d="m73.88,22.62c.24-.94-2.18-1.25-2.03,0-.11.62,2.67.52,2.72,1.72,0,0,.31,1.4-1.63,1.52s-1.86-1.53-1.86-1.53c0,0,.57-.02.57,0,.13,1.39,2.7,1.19,2.31.03-.15-.66-2.51-.28-2.74-1.7,0,0-.06-1.4,1.55-1.35,1.76.06,1.68,1.31,1.68,1.31h-.57Z"/>
    <polygon id="E3" class="cls-2" points="77.01 21.39 80.18 21.39 80.18 21.91 77.58 21.91 77.58 23.24 80.04 23.24 80.04 23.76 77.58 23.76 77.58 25.27 80.28 25.27 80.28 25.79 77.01 25.79 77.01 21.39"/>
    <path id="C-2" data-name="C" class="cls-2" d="m86.04,24.23l.58.11s-.1,1.46-1.83,1.51-2.08-1.89-2.04-2.39.03-1.99,2.04-2.2c0,0,1.35-.11,1.81,1.31l-.61.12s-.2-.81-1.21-.89c-.93-.08-1.37.88-1.42,1.63.02.74.28,2.02,1.49,1.85,1.2-.17,1.2-1.06,1.2-1.06Z"/>
    <path id="U" class="cls-2" d="m88.95,21.36h.55l.06,2.96c.13.74.31,1.01,1.13.98s1.12-.28,1.12-.98v-2.93l.61-.03v2.87s.1,1.53-1.68,1.64-1.78-1.58-1.78-1.58c0,0,0-2.94,0-2.93Z"/>
    <rect id="I3" class="cls-2" x="100.78" y="21.39" width=".62" height="4.41"/>
    <polygon id="T3" class="cls-2" points="103.64 21.36 107.15 21.36 107.15 21.93 105.72 21.93 105.72 25.82 105.11 25.82 105.11 21.93 103.64 21.93 103.64 21.36"/>
    <path id="R" class="cls-2" d="m97.27,23.79s1.22-.03,1.22-1.21-1.25-1.2-1.25-1.2h-2.27v4.4h.57v-1.94h.78c.85-.09,1.3,1.29,1.83,1.94h.71c-1.1-1.95-1.58-2-1.58-2Zm-1.74-.46v-1.47h1.8c.2.09.57.3.57.71,0,.49-.43.73-.71.76h-1.66Z"/>
    <polygon id="Y2" class="cls-2" points="108.89 21.4 109.56 21.4 110.88 23.44 112.21 21.41 112.87 21.41 111.12 23.83 111.12 25.81 110.59 25.81 110.58 23.84 108.89 21.4"/>
  </g>
  <polygon class="cls-2" points=".98 19.3 .99 19.83 114.64 19.85 114.63 19.3 .98 19.3"/>
</svg>