<?xml version="1.0" encoding="UTF-8"?>
<svg id="SVG" xmlns="http://www.w3.org/2000/svg" viewBox="0 0 120 120">
  <defs>
    <style>
      .cls-1 {
        fill: #0076b8;
      }

      .cls-2 {
        fill: #fff;
      }

      .cls-3 {
        fill: #716f6e;
      }
    </style>
  </defs>
  <rect id="ID" x="3.17" y="46.68" width="32.26" height="18.57"/>
  <g id="ID-2" data-name="ID">
    <rect id="I" class="cls-2" x="7.8" y="49" width="3.23" height="13.89"/>
    <path id="D" class="cls-2" d="m23.82,49.08h-7.91v13.78s9.25,0,9.25,0c0,0,8.28.02,7.43-7.96-.7-6.54-8.77-5.82-8.77-5.82Zm1.07,11.14l-5.77.02.03-8.65,6.29-.04s3.78-.24,3.89,4.15-4.43,4.52-4.43,4.52Z"/>
  </g>
  <rect id="TECH" class="cls-1" x="35.43" y="46.68" width="81.39" height="18.57"/>
  <g id="TECH-2" data-name="TECH">
    <polygon id="T" class="cls-2" points="39.4 49.04 55.36 49.04 55.37 51.49 48.96 51.53 49 62.82 45.78 62.88 45.75 51.49 39.41 51.49 39.4 49.04"/>
    <polygon id="E" class="cls-2" points="58.1 49.05 72.23 49.12 72.24 51.37 61.24 51.3 61.24 54.44 67.68 54.44 67.68 56.82 61.27 56.82 61.27 60.28 72.36 60.28 72.36 62.88 58.1 62.88 58.1 49.05"/>
    <path id="C" class="cls-2" d="m88.68,57.23v3.02h-8.66v-8.76h8.71v2.62l3.18-.49v-2.2s.28-2.41-3.21-2.37h-8.74c-2.06-.16-3.18.77-3.16,2.41v8.76s-.16,2.88,3.11,2.62h8.74s3.18.56,3.23-2.6v-2.3l-3.21-.73Z"/>
    <polygon id="H" class="cls-2" points="97.32 49.04 100.56 49.04 100.56 54.41 110.61 54.41 110.61 49.02 113.84 49.02 113.84 62.88 110.58 62.88 110.58 56.84 100.53 56.84 100.53 62.91 97.32 62.91 97.32 49.04"/>
  </g>
  <polygon id="Bottom" class="cls-3" points="3.18 65.78 3.18 73.32 116.83 73.32 116.83 65.8 3.18 65.78"/>
  <g id="Bottom_Text" data-name="Bottom Text">
    <rect id="I-2" data-name="I" class="cls-2" x="5.44" y="67.33" width=".62" height="4.41"/>
    <path id="D-2" data-name="D" class="cls-2" d="m10.37,67.33h-1.71v4.36s1.99,0,1.99,0c0,0,1.79,0,1.6-2.52-.15-2.07-1.89-1.84-1.89-1.84Zm.24,3.89h-1.37v-3.41h1.12s1.23-.14,1.34,1.69c.09,1.41-1.09,1.72-1.09,1.72Z"/>
    <polygon id="E-2" data-name="E" class="cls-2" points="14.68 67.33 17.85 67.33 17.85 67.86 15.25 67.86 15.25 69.18 17.72 69.18 17.72 69.71 15.25 69.71 15.25 71.21 17.95 71.21 17.95 71.74 14.68 71.74 14.68 67.33"/>
    <polygon id="N" class="cls-2" points="20.32 67.34 20.98 67.34 23.22 70.72 23.22 67.34 23.82 67.34 23.82 71.75 23.16 71.75 20.89 68.29 20.88 71.75 20.32 71.75 20.32 67.34"/>
    <polygon id="T-2" data-name="T" class="cls-2" points="26 67.29 29.51 67.29 29.51 67.86 28.09 67.86 28.09 71.74 27.48 71.74 27.48 67.86 26 67.86 26 67.29"/>
    <rect id="I2" class="cls-2" x="31.79" y="67.34" width=".62" height="4.41"/>
    <polygon id="T2" class="cls-2" points="34.63 67.3 38.14 67.3 38.14 67.87 36.71 67.87 36.71 71.76 36.1 71.76 36.1 67.87 34.63 67.87 34.63 67.3"/>
    <polygon id="Y" class="cls-2" points="39.88 67.33 40.55 67.33 41.87 69.37 43.2 67.34 43.87 67.34 42.12 69.75 42.12 71.74 41.59 71.74 41.57 69.76 39.88 67.33"/>
    <path id="A" class="cls-2" d="m52.47,67.33h-.61l-1.71,4.4h.62l.49-1.37h1.84l.55,1.38h.64l-1.82-4.41Zm-1.04,2.6l.74-2.07.77,2.07h-1.51Z"/>
    <polygon id="N2" class="cls-2" points="56.28 67.3 56.94 67.3 59.18 70.68 59.18 67.3 59.79 67.3 59.79 71.71 59.12 71.71 56.86 68.25 56.84 71.71 56.28 71.71 56.28 67.3"/>
    <path id="D-3" data-name="D" class="cls-2" d="m64.07,67.37h-1.71v4.36s1.99,0,1.99,0c0,0,1.79,0,1.6-2.52-.15-2.07-1.89-1.84-1.89-1.84Zm.24,3.89h-1.37v-3.41h1.12s1.23-.14,1.34,1.69c.09,1.41-1.09,1.72-1.09,1.72Z"/>
    <path id="S" class="cls-2" d="m76.07,68.57c.24-.94-2.18-1.25-2.03,0-.11.62,2.67.52,2.72,1.72,0,0,.31,1.4-1.63,1.52s-1.86-1.53-1.86-1.53c0,0,.57-.02.57,0,.13,1.39,2.7,1.19,2.31.03-.15-.66-2.51-.28-2.74-1.7,0,0-.06-1.4,1.55-1.35,1.76.06,1.68,1.31,1.68,1.31h-.57Z"/>
    <polygon id="E3" class="cls-2" points="79.19 67.33 82.37 67.33 82.37 67.86 79.77 67.86 79.77 69.18 82.23 69.18 82.23 69.71 79.77 69.71 79.77 71.21 82.47 71.21 82.47 71.74 79.19 71.74 79.19 67.33"/>
    <path id="C-2" data-name="C" class="cls-2" d="m88.23,70.18l.58.11s-.1,1.46-1.83,1.51-2.08-1.89-2.04-2.39.03-1.99,2.04-2.2c0,0,1.35-.11,1.81,1.31l-.61.12s-.2-.81-1.21-.89c-.93-.08-1.37.88-1.42,1.63.02.74.28,2.02,1.49,1.85,1.2-.17,1.2-1.06,1.2-1.06Z"/>
    <path id="U" class="cls-2" d="m91.14,67.31h.55l.06,2.96c.13.74.31,1.01,1.13.98s1.12-.28,1.12-.98v-2.93l.61-.03v2.87s.1,1.53-1.68,1.64-1.78-1.58-1.78-1.58c0,0,0-2.94,0-2.93Z"/>
    <rect id="I3" class="cls-2" x="102.97" y="67.34" width=".62" height="4.41"/>
    <polygon id="T3" class="cls-2" points="105.83 67.31 109.34 67.31 109.34 67.88 107.91 67.88 107.91 71.76 107.3 71.76 107.3 67.88 105.83 67.88 105.83 67.31"/>
    <path id="R" class="cls-2" d="m99.45,69.74s1.22-.03,1.22-1.21-1.25-1.2-1.25-1.2h-2.27v4.4h.57v-1.94h.78c.85-.09,1.3,1.29,1.83,1.94h.71c-1.1-1.95-1.58-2-1.58-2Zm-1.74-.46v-1.47h1.8c.2.09.57.3.57.71,0,.49-.43.73-.71.76h-1.66Z"/>
    <polygon id="Y2" class="cls-2" points="111.08 67.35 111.74 67.35 113.07 69.39 114.4 67.36 115.06 67.36 113.31 69.77 113.31 71.76 112.78 71.76 112.77 69.78 111.08 67.35"/>
  </g>
  <polygon class="cls-2" points="3.17 65.25 3.18 65.78 116.83 65.8 116.82 65.25 3.17 65.25"/>
</svg>