<?xml version="1.0" encoding="UTF-8"?>
<svg id="SVG" xmlns="http://www.w3.org/2000/svg" viewBox="0 0 114.66 40.06">
  <defs>
    <style>
      .cls-1 {
        font-family: Menlo-Regular, Menlo;
        font-size: 8.43px;
        letter-spacing: .3em;
      }

      .cls-1, .cls-2 {
        fill: #fff;
      }

      .cls-3 {
        fill: #0076b8;
      }

      .cls-4 {
        fill: #716f6e;
      }
    </style>
  </defs>
  <g>
    <rect id="ID" x=".62" y="12.98" width="32.26" height="18.57"/>
    <g id="ID-2" data-name="ID">
      <rect id="I" class="cls-2" x="5.24" y="15.3" width="3.23" height="13.89"/>
      <path id="D" class="cls-2" d="m21.27,15.38h-7.91v13.78s9.25,0,9.25,0c0,0,8.28.02,7.43-7.96-.7-6.54-8.77-5.82-8.77-5.82Zm1.07,11.14l-5.77.02.03-8.65,6.29-.04s3.78-.24,3.89,4.15-4.43,4.52-4.43,4.52Z"/>
    </g>
    <rect id="TECH" class="cls-3" x="32.88" y="12.98" width="81.39" height="18.57"/>
    <g id="TECH-2" data-name="TECH">
      <polygon id="T" class="cls-2" points="36.85 15.34 52.81 15.34 52.81 17.79 46.4 17.82 46.44 29.12 43.23 29.17 43.19 17.79 36.85 17.79 36.85 15.34"/>
      <polygon id="E" class="cls-2" points="55.54 15.35 69.68 15.42 69.68 17.67 58.68 17.6 58.68 20.74 65.12 20.74 65.12 23.11 58.71 23.11 58.71 26.58 69.81 26.58 69.81 29.17 55.54 29.17 55.54 15.35"/>
      <path id="C" class="cls-2" d="m86.12,23.53v3.02h-8.66v-8.76h8.71v2.62l3.18-.49v-2.2s.28-2.41-3.21-2.37h-8.74c-2.06-.16-3.18.77-3.16,2.41v8.76s-.16,2.88,3.11,2.62h8.74s3.18.56,3.23-2.6v-2.3l-3.21-.73Z"/>
      <polygon id="H" class="cls-2" points="94.77 15.34 98 15.34 98 20.71 108.05 20.71 108.05 15.32 111.29 15.32 111.29 29.18 108.03 29.18 108.03 23.14 97.98 23.14 97.98 29.21 94.77 29.21 94.77 15.34"/>
    </g>
    <polygon id="Bottom" class="cls-4" points=".62 32.08 .62 39.62 114.27 39.62 114.27 32.1 .62 32.08"/>
    <g id="Bottom_Text" data-name="Bottom Text">
      <rect id="I-2" data-name="I" class="cls-2" x="2.89" y="33.63" width=".62" height="4.41"/>
      <path id="D-2" data-name="D" class="cls-2" d="m7.81,33.63h-1.71v4.36s1.99,0,1.99,0c0,0,1.79,0,1.6-2.52-.15-2.07-1.89-1.84-1.89-1.84Zm.24,3.89h-1.37v-3.41h1.12s1.23-.14,1.34,1.69c.09,1.41-1.09,1.72-1.09,1.72Z"/>
      <polygon id="E-2" data-name="E" class="cls-2" points="12.12 33.63 15.3 33.63 15.3 34.16 12.7 34.16 12.7 35.48 15.16 35.48 15.16 36.01 12.7 36.01 12.7 37.51 15.4 37.51 15.4 38.04 12.12 38.04 12.12 33.63"/>
      <polygon id="N" class="cls-2" points="17.76 33.64 18.42 33.64 20.66 37.01 20.66 33.64 21.27 33.64 21.27 38.05 20.6 38.05 18.34 34.59 18.33 38.05 17.76 38.05 17.76 33.64"/>
      <polygon id="T-2" data-name="T" class="cls-2" points="23.45 33.59 26.96 33.59 26.96 34.16 25.53 34.16 25.53 38.04 24.92 38.04 24.92 34.16 23.45 34.16 23.45 33.59"/>
      <rect id="I2" class="cls-2" x="29.23" y="33.63" width=".62" height="4.41"/>
      <polygon id="T2" class="cls-2" points="32.07 33.6 35.58 33.6 35.58 34.17 34.16 34.17 34.16 38.05 33.54 38.05 33.54 34.17 32.07 34.17 32.07 33.6"/>
      <polygon id="Y" class="cls-2" points="37.33 33.63 38 33.63 39.32 35.67 40.65 33.63 41.31 33.63 39.56 36.05 39.56 38.04 39.03 38.04 39.02 36.06 37.33 33.63"/>
      <path id="A" class="cls-2" d="m49.92,33.63h-.61l-1.71,4.4h.62l.49-1.37h1.84l.55,1.38h.64l-1.82-4.41Zm-1.04,2.6l.74-2.07.77,2.07h-1.51Z"/>
      <polygon id="N2" class="cls-2" points="53.73 33.6 54.39 33.6 56.63 36.98 56.63 33.6 57.23 33.6 57.23 38.01 56.56 38.01 54.3 34.55 54.29 38.01 53.73 38.01 53.73 33.6"/>
      <path id="D-3" data-name="D" class="cls-2" d="m61.51,33.66h-1.71v4.36s1.99,0,1.99,0c0,0,1.79,0,1.6-2.52-.15-2.07-1.89-1.84-1.89-1.84Zm.24,3.89h-1.37v-3.41h1.12s1.23-.14,1.34,1.69c.09,1.41-1.09,1.72-1.09,1.72Z"/>
      <path id="S" class="cls-2" d="m73.52,34.87c.24-.94-2.18-1.25-2.03,0-.11.62,2.67.52,2.72,1.72,0,0,.31,1.4-1.63,1.52s-1.86-1.53-1.86-1.53c0,0,.57-.02.57,0,.13,1.39,2.7,1.19,2.31.03-.15-.66-2.51-.28-2.74-1.7,0,0-.06-1.4,1.55-1.35,1.76.06,1.68,1.31,1.68,1.31h-.57Z"/>
      <polygon id="E3" class="cls-2" points="76.64 33.63 79.81 33.63 79.81 34.16 77.21 34.16 77.21 35.48 79.68 35.48 79.68 36.01 77.21 36.01 77.21 37.51 79.91 37.51 79.91 38.04 76.64 38.04 76.64 33.63"/>
      <path id="C-2" data-name="C" class="cls-2" d="m85.67,36.48l.58.11s-.1,1.46-1.83,1.51-2.08-1.89-2.04-2.39.03-1.99,2.04-2.2c0,0,1.35-.11,1.81,1.31l-.61.12s-.2-.81-1.21-.89c-.93-.08-1.37.88-1.42,1.63.02.74.28,2.02,1.49,1.85,1.2-.17,1.2-1.06,1.2-1.06Z"/>
      <path id="U" class="cls-2" d="m88.58,33.61h.55l.06,2.96c.13.74.31,1.01,1.13.98s1.12-.28,1.12-.98v-2.93l.61-.03v2.87s.1,1.53-1.68,1.64-1.78-1.58-1.78-1.58c0,0,0-2.94,0-2.93Z"/>
      <rect id="I3" class="cls-2" x="100.42" y="33.64" width=".62" height="4.41"/>
      <polygon id="T3" class="cls-2" points="103.27 33.61 106.78 33.61 106.78 34.18 105.36 34.18 105.36 38.06 104.74 38.06 104.74 34.18 103.27 34.18 103.27 33.61"/>
      <path id="R" class="cls-2" d="m96.9,36.04s1.22-.03,1.22-1.21-1.25-1.2-1.25-1.2h-2.27v4.4h.57v-1.94h.78c.85-.09,1.3,1.29,1.83,1.94h.71c-1.1-1.95-1.58-2-1.58-2Zm-1.74-.46v-1.47h1.8c.2.09.57.3.57.71,0,.49-.43.73-.71.76h-1.66Z"/>
      <polygon id="Y2" class="cls-2" points="108.52 33.65 109.19 33.65 110.51 35.69 111.84 33.65 112.5 33.65 110.75 36.07 110.75 38.06 110.23 38.06 110.21 36.08 108.52 33.65"/>
    </g>
    <polygon class="cls-2" points=".62 31.55 .62 32.08 114.27 32.1 114.26 31.55 .62 31.55"/>
  </g>
  <text class="cls-1" transform="translate(11.45 8.79) scale(1.21 1)"><tspan x="0" y="0">POWERED BY</tspan></text>
</svg>