<?xml version="1.0" encoding="utf-8"?>
<!-- Generator: Adobe Illustrator 24.3.0, SVG Export Plug-In . SVG Version: 6.00 Build 0)  -->
<svg version="1.1" xmlns="http://www.w3.org/2000/svg" xmlns:xlink="http://www.w3.org/1999/xlink" x="0px" y="0px"
	 viewBox="0 0 120 120" enable-background="new 0 0 120 120" xml:space="preserve">
<g id="Layer_1" display="none">
</g>
<g id="Layer_4" display="none">
	<g id="House" display="inline">
	</g>
</g>
<g id="Layer_5" display="none">
</g>
<g id="Layer_9" display="none">
</g>
<g id="Layer_19">
</g>
<g id="Layer_18">
</g>
<g id="Layer_15">
</g>
<g id="Layer_10_copy">
</g>
<g id="Layer_11">
</g>
<g id="Layer_10">
</g>
<g id="Layer_7">
	<g>
		<path fill="#FFFFFF" d="M61.27,54.55c1.55-0.53,2.68-1.99,2.68-3.72c0-2.18-1.77-3.95-3.95-3.95s-3.95,1.77-3.95,3.95
			c0,1.73,1.12,3.19,2.68,3.72v8.17H47.25v25.49h25.49V62.72H61.27V54.55z M60,49.43c0.77,0,1.4,0.63,1.4,1.41
			c0,0.77-0.63,1.4-1.4,1.4s-1.4-0.63-1.4-1.4C58.6,50.06,59.23,49.43,60,49.43z M70.2,65.26v20.41H49.8V65.26h8.93h2.54H70.2z"/>
		<path fill="#FFFFFF" d="M49.44,38.7c5.83-5.83,15.31-5.83,21.14,0l0.9,0.9l1.8-1.8l-0.9-0.9c-3.3-3.3-7.69-5.11-12.37-5.11
			c0,0,0,0-0.01,0c-4.68,0-9.07,1.82-12.36,5.11l-0.91,0.91l1.81,1.79L49.44,38.7z"/>
		<path fill="#FFFFFF" d="M67.88,43.2l1.8-1.8l-0.9-0.9c-4.84-4.84-12.71-4.84-17.57,0.03l-0.87,0.93l1.81,1.73l0.88-0.88
			c3.85-3.85,10.1-3.85,13.95,0L67.88,43.2z"/>
		<path fill="#FFFFFF" d="M54.82,44.11l-0.9,0.9l1.8,1.8l0.9-0.9c1.87-1.87,4.91-1.87,6.77-0.01l0.9,0.9l1.8-1.8l-0.9-0.9
			C62.33,41.24,57.68,41.25,54.82,44.11z"/>
	</g>
</g>
<g id="Layer_6">
</g>
<g id="Layer_3">
</g>
<g id="Layer_17">
</g>
<g id="Layer_16">
</g>
<g id="Layer_2">
</g>
<g id="Layer_2_copy_2" display="none">
</g>
<g id="Layer_2_copy" display="none">
</g>
</svg>
