<?xml version="1.0" encoding="utf-8"?>
<!-- Generator: Adobe Illustrator 24.3.0, SVG Export Plug-In . SVG Version: 6.00 Build 0)  -->
<svg version="1.1" xmlns="http://www.w3.org/2000/svg" xmlns:xlink="http://www.w3.org/1999/xlink" x="0px" y="0px"
	 viewBox="0 0 120 120" enable-background="new 0 0 120 120" xml:space="preserve">
<g id="Layer_1" display="none">
</g>
<g id="Layer_4" display="none">
	<g id="House" display="inline">
	</g>
</g>
<g id="Layer_5" display="none">
</g>
<g id="Layer_9" display="none">
</g>
<g id="Layer_19">
</g>
<g id="Layer_18">
</g>
<g id="Layer_15">
</g>
<g id="Layer_10_copy">
</g>
<g id="Layer_11">
</g>
<g id="Layer_10">
</g>
<g id="Layer_7">
</g>
<g id="Layer_6">
</g>
<g id="Layer_3">
</g>
<g id="Layer_17">
</g>
<g id="Layer_16">
</g>
<g id="Layer_2">
	<g>
		<g>
			<polygon fill="#FFFFFF" points="79.02,81.72 30.82,81.72 30.82,48.46 67.88,48.46 67.88,51 33.36,51 33.36,79.17 76.48,79.17 
				76.48,59.61 79.02,59.61 			"/>
		</g>
		<g>
			<g>
				<path fill="#FFFFFF" d="M50.67,68.52H37.42V57.54h13.25V68.52z M39.96,65.98h8.17v-5.9h-8.17V65.98z"/>
			</g>
			<g>
				<rect x="37.42" y="72.54" fill="#FFFFFF" width="20.39" height="2.54"/>
			</g>
		</g>
		<g>
			<g>
				<path fill="#FFFFFF" d="M86.64,57.06v-1.29c0-8.24-6.71-14.95-14.95-14.95h-1.27v-2.54h1.27c9.64,0,17.49,7.85,17.49,17.49v1.27
					L86.64,57.06z"/>
			</g>
			<g>
				<path fill="#FFFFFF" d="M81.56,57.06v-1.29c0-5.44-4.42-9.86-9.86-9.86h-1.27v-2.54h1.27c6.84,0,12.41,5.56,12.41,12.41v1.27
					L81.56,57.06z"/>
			</g>
			<g>
				<path fill="#FFFFFF" d="M79.01,57.06h-2.54v-1.27c0-2.64-2.14-4.8-4.78-4.8h-1.27v-2.54h1.27c4.04,0,7.32,3.29,7.32,7.34V57.06z
					"/>
			</g>
		</g>
	</g>
</g>
<g id="Layer_2_copy_2" display="none">
</g>
<g id="Layer_2_copy" display="none">
</g>
</svg>
