<?xml version="1.0" encoding="utf-8"?>
<!-- Generator: Adobe Illustrator 24.3.0, SVG Export Plug-In . SVG Version: 6.00 Build 0)  -->
<svg version="1.1" xmlns="http://www.w3.org/2000/svg" xmlns:xlink="http://www.w3.org/1999/xlink" x="0px" y="0px"
	 viewBox="0 0 120 120" enable-background="new 0 0 120 120" xml:space="preserve">
<g id="Layer_1" display="none">
</g>
<g id="Layer_4" display="none">
	<g id="House" display="inline">
	</g>
</g>
<g id="Layer_5" display="none">
</g>
<g id="Layer_9" display="none">
</g>
<g id="Layer_19">
</g>
<g id="Layer_18">
</g>
<g id="Layer_15">
</g>
<g id="Layer_10_copy">
</g>
<g id="Layer_11">
	<g>
		<g>
			<g>
				<g>
					<path fill="#FFFFFF" d="M85.63,84.11H54.69v-2.54h29.94l6.16-5.75l-24.64-27l0.77-0.86c2.12-2.36,5.95-5.48,11.66-9.49
						c-8.81,0.43-17.3,4.19-23.54,10.46l-0.82,0.83l-6.61-5.54l-0.03,0.11c-0.91,2.93-0.84,6.14,0.19,9.03l0.61,1.7h-1.8
						c-6.51,0-19.66,0.02-19.66,0.02l0-2.54c0,0,11.11-0.01,17.96-0.02c-0.71-2.94-0.62-6.05,0.28-8.94l1.16-3.76l7.76,6.51
						c7.03-6.64,16.52-10.43,26.21-10.43h6.58l-3.43,2.32c-6.71,4.54-11.25,8.03-13.83,10.62l24.77,27.14L85.63,84.11z"/>
				</g>
			</g>
			<g>
				<polygon fill="#FFFFFF" points="57,56.87 57,61.48 65.13,61.48 				"/>
			</g>
		</g>
		<g>
			<g>
				<path fill="#FFFFFF" d="M47.73,84.11h-1.29c-11.47,0-20.81-9.33-20.81-20.8v-1.27h2.54v1.27c0,10.07,8.19,18.26,18.26,18.26
					h1.27L47.73,84.11z"/>
			</g>
			<g>
				<path fill="#FFFFFF" d="M47.73,77.99h-1.29c-8.1,0-14.68-6.59-14.68-14.68v-1.27h2.54v1.27c0,6.69,5.45,12.14,12.14,12.14h1.27
					L47.73,77.99z"/>
			</g>
			<g>
				<path fill="#FFFFFF" d="M47.73,71.86h-1.27c-4.73,0-8.58-3.84-8.58-8.56v-1.27h2.54v1.27c0,3.32,2.71,6.01,6.04,6.01h1.27V71.86
					z"/>
			</g>
		</g>
	</g>
</g>
<g id="Layer_10">
</g>
<g id="Layer_7">
</g>
<g id="Layer_6">
</g>
<g id="Layer_3">
</g>
<g id="Layer_17">
</g>
<g id="Layer_16">
</g>
<g id="Layer_2">
</g>
<g id="Layer_2_copy_2" display="none">
</g>
<g id="Layer_2_copy" display="none">
</g>
</svg>
