<?xml version="1.0" encoding="UTF-8"?>
<svg id="Layer_1" data-name="Layer 1" xmlns="http://www.w3.org/2000/svg" viewBox="0 0 120 120">
  <defs>
    <style>
      .cls-1 {
        stroke-linecap: round;
        stroke-linejoin: round;
      }

      .cls-1, .cls-2 {
        fill: #fff;
        stroke: #fff;
      }

      .cls-2 {
        stroke-miterlimit: 10;
      }
    </style>
  </defs>
  <path class="cls-1" d="m60,33.26c-20.04,0-37.56,10.72-47.17,26.74,9.61,16.02,27.13,26.74,47.17,26.74s37.56-10.72,47.17-26.74c-9.61-16.02-27.13-26.74-47.17-26.74Zm0,46.94c-11.15,0-20.2-9.04-20.2-20.2s9.04-20.2,20.2-20.2,20.2,9.04,20.2,20.2-9.04,20.2-20.2,20.2Z"/>
  <path class="cls-2" d="m59.92,48.81c-.95,0-1.86.13-2.74.35.38.75.61,1.59.61,2.48,0,3.07-2.49,5.55-5.55,5.55-1.04,0-2.01-.31-2.85-.81-.37,1.11-.58,2.29-.58,3.53,0,6.13,4.97,11.11,11.11,11.11s11.11-4.97,11.11-11.11-4.97-11.11-11.11-11.11Z"/>
</svg>