<?xml version="1.0" encoding="utf-8"?>
<!-- Generator: Adobe Illustrator 24.3.0, SVG Export Plug-In . SVG Version: 6.00 Build 0)  -->
<svg version="1.1" xmlns="http://www.w3.org/2000/svg" xmlns:xlink="http://www.w3.org/1999/xlink" x="0px" y="0px"
	 viewBox="0 0 120 120" enable-background="new 0 0 120 120" xml:space="preserve">
<g id="Layer_1" display="none">
</g>
<g id="Layer_4" display="none">
	<g id="House" display="inline">
	</g>
</g>
<g id="Layer_5" display="none">
</g>
<g id="Layer_9" display="none">
</g>
<g id="Layer_19">
	<g>
		<path fill="#FFFFFF" d="M89.97,61.29h12.51V46.24h-6.25h0v-12.5h-6.25h-2.54h-6.25v12.5h-6.25v15.05h12.5H89.97z M99.93,48.78
			v9.96h-9.96v-9.96h3.71v6.25h2.54v-6.25H99.93z M83.72,36.28h3.71v6.25h2.54v-6.25h3.71v9.96h-3.71h-2.54h-3.71V36.28z
			 M77.46,58.75v-9.96h3.71v6.25h2.54v-6.25h3.71v9.96H77.46z"/>
		<path fill="#FFFFFF" d="M36.14,75.25c-3.04,0-5.51,2.47-5.51,5.51c0,3.04,2.47,5.51,5.51,5.51c3.04,0,5.51-2.47,5.51-5.51
			C41.65,77.72,39.18,75.25,36.14,75.25z M36.14,83.72c-1.64,0-2.97-1.33-2.97-2.97c0-1.64,1.33-2.97,2.97-2.97
			c1.64,0,2.97,1.33,2.97,2.97C39.11,82.39,37.78,83.72,36.14,83.72z"/>
		<path fill="#FFFFFF" d="M61.14,75.25c-3.04,0-5.51,2.47-5.51,5.51c0,3.04,2.47,5.51,5.51,5.51c3.04,0,5.51-2.47,5.51-5.51
			C66.65,77.72,64.18,75.25,61.14,75.25z M61.14,83.72c-1.64,0-2.97-1.33-2.97-2.97c0-1.64,1.33-2.97,2.97-2.97
			c1.64,0,2.97,1.33,2.97,2.97C64.11,82.39,62.78,83.72,61.14,83.72z"/>
		<path fill="#FFFFFF" d="M31.64,44.07h1.27v-2.54h-1.27c-9.64,0-17.49,7.85-17.49,17.49v1.29l2.54-0.02v-1.27
			C16.69,50.78,23.39,44.07,31.64,44.07z"/>
		<path fill="#FFFFFF" d="M31.64,49.16h1.27v-2.54h-1.27c-6.84,0-12.41,5.57-12.41,12.41v1.29l2.54-0.02v-1.27
			C21.77,53.58,26.2,49.16,31.64,49.16z"/>
		<path fill="#FFFFFF" d="M26.86,59.04c0-2.64,2.14-4.8,4.78-4.8h1.27V51.7h-1.27c-4.04,0-7.32,3.29-7.32,7.34v1.27h2.54V59.04z"/>
		<path fill="#FFFFFF" d="M105.85,67.26v-2.54h-9.63h-2.54h-9.96h-2.54h-9.83V46.24H68.8v18.47v2.54v3.28v0.01h-0.54H66.3
			L55.62,37.92H45.38V51.7h-9.93v2.54h9.93v5.24v11.06h-9.07c-0.05,0-0.11-0.01-0.16-0.01c-0.06,0-0.11,0.01-0.16,0.01h-9.12v-7.69
			h-2.54v10.24h5.11c-2.13,1.87-3.48,4.61-3.48,7.67v1.27h2.54v-1.27c0-4.21,3.39-7.62,7.58-7.67h0.16
			c4.19,0.05,7.58,3.46,7.58,7.67v1.27h2.54h4.59h2.54v-1.27c0-4.21,3.39-7.62,7.58-7.67h0.16c4.19,0.05,7.58,3.46,7.58,7.67h2.54
			v-7.67v-0.01h9.83h2.54h9.96v0.01h2.54v-0.01h9.63v-2.54h-9.63v-3.28H105.85z M47.92,59.48V51.7V40.47h5.86l9.85,30.08h-0.06h-2.3
			c-0.04,0-0.08-0.01-0.13-0.01c-0.06,0-0.11,0.01-0.16,0.01H47.92V59.48z M51.03,79.49h-4.77c-0.32-2.54-1.57-4.79-3.39-6.4h2.51
			h2.54h6.5C52.59,74.7,51.34,76.95,51.03,79.49z M68.8,74.02c-0.29-0.33-0.6-0.64-0.92-0.93h0.39h0.54V74.02z M71.34,70.54v-3.28
			h9.83v3.28H71.34z M93.68,70.54h-9.96v-3.28h9.96V70.54z"/>
	</g>
</g>
<g id="Layer_18">
</g>
<g id="Layer_15">
</g>
<g id="Layer_10_copy">
</g>
<g id="Layer_11">
</g>
<g id="Layer_10">
</g>
<g id="Layer_7">
</g>
<g id="Layer_6">
</g>
<g id="Layer_3">
</g>
<g id="Layer_17">
</g>
<g id="Layer_16">
</g>
<g id="Layer_2">
</g>
<g id="Layer_2_copy_2" display="none">
</g>
<g id="Layer_2_copy" display="none">
</g>
</svg>
