<?xml version="1.0" encoding="UTF-8"?>
<svg id="Layer_1" data-name="Layer 1" xmlns="http://www.w3.org/2000/svg" viewBox="0 0 120 120">
  <defs>
    <style>
      .cls-1 {
        stroke-width: 2px;
      }

      .cls-1, .cls-2 {
        fill: none;
        stroke: #fff;
        stroke-linecap: round;
        stroke-linejoin: round;
      }

      .cls-2 {
        stroke-width: 3px;
      }
    </style>
  </defs>
  <g>
    <rect class="cls-2" x="43.08" y="80.43" width="33.84" height="33.84" rx="10.93" ry="10.93" transform="translate(-37.35 157.35) rotate(-90)"/>
    <g>
      <path class="cls-1" d="m65.53,76.94c-3.07-3.27-8.21-3.42-11.48-.35"/>
      <path class="cls-1" d="m68.98,68.94c-4.81-5.11-12.85-5.36-17.97-.55"/>
      <path class="cls-1" d="m67.05,72.79c-3.88-4.12-10.36-4.32-14.48-.44"/>
    </g>
  </g>
  <g>
    <rect class="cls-2" x="77.68" y="9.39" width="33.84" height="33.84" rx="10.93" ry="10.93" transform="translate(180.09 -21.98) rotate(135)"/>
    <g>
      <path class="cls-1" d="m76.26,36.82c-.14,4.48,3.39,8.23,7.87,8.36"/>
      <path class="cls-1" d="m68.16,40.04c-.21,7.02,5.3,12.88,12.32,13.09"/>
      <path class="cls-1" d="m72.24,38.69c-.17,5.66,4.27,10.38,9.93,10.55"/>
    </g>
  </g>
  <g>
    <rect class="cls-2" x="8.48" y="9.58" width="33.84" height="33.84" rx="10.93" ry="10.93" transform="translate(62.1 27.27) rotate(135)"/>
    <g>
      <path class="cls-1" d="m35.92,44.83c4.48.14,8.23-3.39,8.36-7.87"/>
      <path class="cls-1" d="m39.14,52.94c7.02.21,12.88-5.3,13.09-12.32"/>
      <path class="cls-1" d="m37.79,48.85c5.66.17,10.38-4.27,10.55-9.93"/>
    </g>
  </g>
</svg>
