<?xml version="1.0" encoding="utf-8"?>
<!-- Generator: Adobe Illustrator 24.3.0, SVG Export Plug-In . SVG Version: 6.00 Build 0)  -->
<svg version="1.1" xmlns="http://www.w3.org/2000/svg" xmlns:xlink="http://www.w3.org/1999/xlink" x="0px" y="0px"
	 viewBox="0 0 120 120" enable-background="new 0 0 120 120" xml:space="preserve">
<g id="Layer_1" display="none">
</g>
<g id="Layer_4" display="none">
	<g id="House" display="inline">
	</g>
</g>
<g id="Layer_5" display="none">
</g>
<g id="Layer_9" display="none">
</g>
<g id="Layer_19">
</g>
<g id="Layer_18">
</g>
<g id="Layer_15">
	<g>
		<path fill="#FFFFFF" d="M34.4,50.69c0-8.24,6.71-14.95,14.95-14.95h1.27V33.2h-1.27c-9.64,0-17.49,7.85-17.49,17.49v1.29
			l2.54-0.02V50.69z"/>
		<path fill="#FFFFFF" d="M49.35,40.82h1.27v-2.54h-1.27c-6.84,0-12.41,5.56-12.41,12.41v1.29l2.54-0.02v-1.27
			C39.48,45.25,43.91,40.82,49.35,40.82z"/>
		<path fill="#FFFFFF" d="M44.57,50.7c0-2.64,2.14-4.79,4.78-4.79h1.27v-2.54h-1.27c-4.04,0-7.32,3.29-7.32,7.34v1.27h2.54V50.7z"/>
		<path fill="#FFFFFF" d="M82.07,84.26v-3.28h6.08v-2.54h-6.08h-2.54H61.59h-2.54H41.11h-2.54h-6.08v2.54h6.08v3.28h-6.08v2.54h6.08
			h2.54h38.41h2.54h6.08v-2.54H82.07z M41.11,80.98h17.94l0,3.28H41.11V80.98z M61.59,84.26l0-3.28h17.94v3.28H61.59z"/>
		<path fill="#FFFFFF" d="M48.09,73.88h24.46V49.42H61.59h-2.54H48.09V73.88z M50.63,51.97h8.42v10.96h2.54V51.97H70v19.37H50.63
			V51.97z"/>
	</g>
</g>
<g id="Layer_10_copy">
</g>
<g id="Layer_11">
</g>
<g id="Layer_10">
</g>
<g id="Layer_7">
</g>
<g id="Layer_6">
</g>
<g id="Layer_3">
</g>
<g id="Layer_17">
</g>
<g id="Layer_16">
</g>
<g id="Layer_2">
</g>
<g id="Layer_2_copy_2" display="none">
</g>
<g id="Layer_2_copy" display="none">
</g>
</svg>
