<?xml version="1.0" encoding="UTF-8"?>
<svg id="Layer_1" data-name="Layer 1" xmlns="http://www.w3.org/2000/svg" viewBox="0 0 120 120">
  <defs>
    <style>
      .cls-1 {
        fill: none;
      }

      .cls-2 {
        fill: #fff;
      }
    </style>
  </defs>
  <g>
    <path class="cls-2" d="m35.32,81.55l-4.11-.56c-.33-.05-.58-.32-.59-.65l-.22-5.89c-1.08-.46-2.09-1.05-3.02-1.76l-5.23,2.7c-.3.15-.66.07-.86-.19l-2.51-3.31c-.2-.27-.18-.64.04-.88l4-4.32c-.44-1.09-.73-2.22-.89-3.38l-5.61-1.79c-.32-.1-.52-.42-.47-.75l.56-4.11c.05-.33.32-.58.65-.59l5.89-.22c.46-1.08,1.05-2.09,1.76-3.02l-2.7-5.23c-.15-.3-.07-.66.19-.86l3.31-2.51c.27-.2.64-.18.88.04l4.32,4.01c1.08-.44,2.22-.73,3.38-.89l1.79-5.61c.1-.32.42-.52.75-.47l4.11.56c.33.05.58.32.59.65l.22,5.89c1.08.46,2.09,1.05,3.02,1.76l5.23-2.7c.3-.15.66-.07.86.19l2.51,3.31c.2.27.18.64-.04.88l-4,4.32c.44,1.08.73,2.22.89,3.38l5.61,1.79c.32.1.52.42.47.75l-.56,4.11c-.05.33-.32.58-.65.59l-5.89.22c-.46,1.08-1.05,2.09-1.76,3.02l2.7,5.23c.15.3.07.66-.19.86l-3.31,2.51c-.27.2-.64.18-.88-.04l-4.32-4c-1.09.44-2.22.73-3.38.89l-1.79,5.61c-.1.32-.42.52-.75.47Zm-3.36-1.84l2.97.41,1.75-5.49c.08-.26.31-.45.58-.47,1.33-.13,2.62-.47,3.84-1.01.25-.11.54-.06.74.13l4.22,3.91,2.39-1.81-2.64-5.11c-.13-.24-.09-.54.08-.75.84-1.03,1.51-2.18,2-3.43.1-.25.34-.43.61-.44l5.75-.22.41-2.97-5.48-1.75c-.26-.08-.45-.31-.47-.58-.13-1.33-.47-2.62-1.01-3.84-.11-.25-.06-.54.13-.74l3.91-4.22-1.81-2.39-5.11,2.64c-.24.13-.54.09-.75-.08-1.03-.84-2.18-1.51-3.43-2-.25-.1-.43-.34-.44-.61l-.22-5.75-2.97-.41-1.75,5.48c-.08.26-.31.45-.58.47-1.33.13-2.62.47-3.84,1.01-.25.11-.54.06-.74-.13l-4.22-3.91-2.39,1.81,2.64,5.11c.13.24.09.54-.08.75-.84,1.03-1.51,2.18-2,3.43-.1.25-.34.43-.61.44l-5.75.22-.41,2.97,5.48,1.75c.26.08.45.31.47.58.13,1.33.47,2.62,1.01,3.84.11.25.06.54-.13.74l-3.91,4.22,1.81,2.39,5.11-2.64c.24-.13.54-.09.75.08,1.03.84,2.18,1.51,3.43,2,.25.1.43.34.44.61l.22,5.75Zm22.9-13.62h0s0,0,0,0Z"/>
    <path class="cls-2" d="m34.75,70.33c-4.92-.67-8.37-5.22-7.7-10.13s5.22-8.37,10.13-7.7,8.37,5.22,7.7,10.13-5.22,8.37-10.13,7.7Zm2.25-16.47c-4.17-.57-8.02,2.36-8.59,6.53s2.36,8.02,6.53,8.59,8.02-2.36,8.59-6.53-2.36-8.02-6.53-8.59Z"/>
  </g>
  <g>
    <path class="cls-2" d="m75.03,104.99l-4.12.5c-.33.04-.64-.16-.74-.48l-1.71-5.64c-1.16-.17-2.29-.49-3.37-.94l-4.38,3.94c-.25.22-.62.24-.88.03l-3.27-2.56c-.26-.21-.34-.57-.18-.86l2.78-5.19c-.7-.94-1.27-1.96-1.72-3.05l-5.88-.31c-.33-.02-.6-.27-.64-.6l-.5-4.12c-.04-.33.16-.64.48-.74l5.64-1.71c.17-1.16.49-2.29.94-3.37l-3.94-4.38c-.22-.25-.24-.62-.03-.88l2.56-3.27c.21-.26.57-.34.86-.18l5.19,2.78c.94-.7,1.96-1.27,3.05-1.72l.31-5.88c.02-.33.27-.6.6-.64l4.12-.5c.33-.04.64.16.74.48l1.71,5.64c1.16.17,2.29.49,3.37.94l4.38-3.94c.25-.22.62-.24.88-.03l3.27,2.56c.26.21.34.57.18.86l-2.78,5.19c.7.94,1.27,1.96,1.72,3.05l5.88.31c.33.02.6.27.64.6l.5,4.12c.04.33-.16.64-.48.74l-5.64,1.71c-.17,1.16-.49,2.29-.94,3.37l3.94,4.38c.22.25.24.62.03.88l-2.56,3.27c-.21.26-.57.34-.86.18l-5.19-2.78c-.94.7-1.96,1.27-3.05,1.72l-.31,5.88c-.02.33-.27.6-.6.64Zm-3.71-.93l2.98-.36.3-5.75c.01-.27.19-.51.45-.61,1.25-.47,2.41-1.12,3.46-1.95.22-.17.51-.2.75-.07l5.07,2.72,1.85-2.36-3.85-4.28c-.18-.2-.23-.5-.11-.74.55-1.21.91-2.5,1.06-3.82.03-.27.22-.5.48-.58l5.51-1.67-.36-2.98-5.75-.3c-.27-.01-.51-.19-.61-.45-.47-1.25-1.12-2.42-1.95-3.46-.17-.21-.2-.51-.07-.75l2.72-5.07-2.36-1.85-4.28,3.85c-.2.18-.49.23-.74.11-1.21-.55-2.49-.91-3.82-1.07-.27-.03-.5-.22-.58-.48l-1.67-5.51-2.98.36-.3,5.75c-.01.27-.19.51-.45.61-1.25.47-2.41,1.12-3.46,1.95-.21.17-.51.2-.75.07l-5.07-2.72-1.85,2.36,3.85,4.28c.18.2.23.5.11.74-.55,1.21-.91,2.49-1.07,3.82-.03.27-.22.5-.48.58l-5.51,1.67.36,2.98,5.75.3c.27.01.51.19.61.45.47,1.25,1.12,2.41,1.95,3.46.17.21.2.51.07.75l-2.72,5.07,2.36,1.85,4.28-3.85c.2-.18.5-.23.74-.11,1.21.55,2.49.91,3.82,1.06.27.03.5.22.58.48l1.67,5.51Zm18.7-18.97h0s0,0,0,0Z"/>
    <path class="cls-2" d="m71.65,94.28c-4.93.6-9.42-2.92-10.02-7.85s2.92-9.42,7.85-10.02,9.42,2.92,10.02,7.85c.6,4.93-2.92,9.42-7.85,10.01Zm-2-16.5c-4.17.51-7.16,4.31-6.65,8.49s4.31,7.16,8.49,6.65,7.16-4.31,6.65-8.49-4.31-7.16-8.49-6.65Z"/>
  </g>
  <path class="cls-1" d="m75.41,43.64c1.18.95,2.06,1.39,3.73,1.39s2.68-.43,3.81-1.34c.57-.47,1.36-.57,2-.21,1.08.61,2.06,1.4,2.89,2.31,1.17-1.7,1.86-3.75,1.86-5.96,0-5.8-4.72-10.53-10.53-10.53s-10.53,4.72-10.53,10.53c0,2.21.69,4.26,1.86,5.96.84-.92,1.83-1.72,2.93-2.33.63-.35,1.41-.27,1.97.18Zm3.77-10.72c2.99,0,5.41,2.42,5.41,5.41s-2.42,5.41-5.41,5.41-5.41-2.42-5.41-5.41,2.42-5.41,5.41-5.41Z"/>
  <path class="cls-1" d="m96.35,35.69c-.43-1.79-1.14-3.5-2.09-5.06-.2-.32-.18-.73.03-1.04l4.56-6.5-2.93-2.93-6.5,4.57c-.31.22-.72.23-1.04.03-1.57-.96-3.27-1.66-5.06-2.09-.37-.09-.65-.39-.71-.76l-1.37-7.83h-4.14l-1.37,7.83c-.06.37-.34.67-.71.76-1.79.43-3.5,1.14-5.06,2.09-.32.2-.73.18-1.04-.03l-6.5-4.57-2.93,2.93,4.56,6.5c.22.31.23.72.03,1.04-.96,1.56-1.66,3.27-2.09,5.06-.09.37-.39.65-.76.71l-7.83,1.37v4.14l7.83,1.37c.37.06.67.34.76.71.43,1.79,1.14,3.49,2.09,5.06.2.32.18.73-.03,1.04l-4.56,6.5,2.93,2.93,6.5-4.56c.31-.22.72-.23,1.04-.03,1.56.96,3.27,1.66,5.06,2.09.37.09.65.39.71.76l1.37,7.83h4.14l1.37-7.83c.06-.37.34-.67.71-.76,1.79-.43,3.49-1.14,5.06-2.09.32-.2.73-.18,1.04.03l6.5,4.56,2.93-2.93-4.56-6.5c-.22-.31-.23-.72-.03-1.04.96-1.57,1.66-3.27,2.09-5.06.09-.37.39-.65.76-.71l7.83-1.37v-4.14l-7.83-1.37c-.37-.06-.67-.34-.76-.71Zm-5.62,15.94c.19,1.08-.63,2.07-1.72,2.07h-19.67c-1.09,0-1.91-.99-1.72-2.07.28-1.55.87-2.99,1.7-4.27-1.6-2.09-2.56-4.69-2.56-7.52,0-6.85,5.57-12.42,12.42-12.42s12.42,5.57,12.42,12.42c0,2.83-.96,5.43-2.56,7.52.82,1.28,1.42,2.72,1.7,4.27Z"/>
  <path class="cls-2" d="m106.05,36.04l-8.01-1.4c-.43-1.56-1.05-3.06-1.85-4.46l4.67-6.65c.26-.38.22-.89-.11-1.21l-4.05-4.05c-.32-.32-.84-.37-1.21-.11l-6.65,4.67c-1.4-.8-2.9-1.42-4.46-1.85l-1.4-8.01c-.08-.45-.47-.78-.93-.78h-5.73c-.46,0-.85.33-.93.78l-1.4,8.01c-1.56.43-3.06,1.05-4.46,1.85l-6.65-4.67c-.38-.26-.89-.22-1.21.11l-4.05,4.05c-.33.33-.37.84-.11,1.21l4.67,6.65c-.8,1.4-1.42,2.9-1.85,4.46l-8.01,1.4c-.45.08-.78.47-.78.93v5.73c0,.46.33.85.78.93l8.01,1.4c.43,1.56,1.05,3.06,1.85,4.46l-4.67,6.65c-.26.38-.22.89.11,1.21l4.05,4.05c.33.32.84.37,1.21.11l6.65-4.67c1.4.8,2.9,1.42,4.46,1.85l1.4,8.01c.08.45.47.78.93.78h5.73c.46,0,.85-.33.93-.78l1.4-8.01c1.56-.43,3.06-1.05,4.46-1.85l6.65,4.67c.38.26.89.22,1.21-.11l4.05-4.05c.33-.33.37-.84.11-1.21l-4.67-6.65c.8-1.4,1.42-2.9,1.85-4.46l8.01-1.4c.45-.08.78-.47.78-.93v-5.73c0-.46-.33-.85-.78-.93Zm-1.11,5.87l-7.83,1.37c-.37.06-.67.34-.76.71-.43,1.79-1.14,3.5-2.09,5.06-.2.32-.18.73.03,1.04l4.56,6.5-2.93,2.93-6.5-4.56c-.31-.22-.72-.23-1.04-.03-1.56.96-3.27,1.66-5.06,2.09-.37.09-.65.39-.71.76l-1.37,7.83h-4.14l-1.37-7.83c-.06-.37-.34-.67-.71-.76-1.79-.43-3.49-1.14-5.06-2.09-.32-.2-.73-.18-1.04.03l-6.5,4.56-2.93-2.93,4.56-6.5c.22-.31.23-.72.03-1.04-.96-1.57-1.66-3.27-2.09-5.06-.09-.37-.39-.65-.76-.71l-7.83-1.37v-4.14l7.83-1.37c.37-.06.67-.34.76-.71.43-1.79,1.14-3.5,2.09-5.06.2-.32.18-.73-.03-1.04l-4.56-6.5,2.93-2.93,6.5,4.57c.31.22.72.23,1.04.03,1.56-.96,3.27-1.66,5.06-2.09.37-.09.65-.39.71-.76l1.37-7.83h4.14l1.37,7.83c.06.37.34.67.71.76,1.79.43,3.49,1.14,5.06,2.09.32.2.73.18,1.04-.03l6.5-4.57,2.93,2.93-4.56,6.5c-.22.31-.23.72-.03,1.04.96,1.56,1.66,3.27,2.09,5.06.09.37.39.65.76.71l7.83,1.37v4.14Zm.95.8h0,0Z"/>
  <path class="cls-2" d="m79.18,27.42c-6.85,0-12.42,5.57-12.42,12.42,0,2.83.96,5.43,2.56,7.52.36-.55.75-1.08,1.19-1.57-1.17-1.7-1.86-3.75-1.86-5.96,0-5.8,4.72-10.53,10.53-10.53s10.53,4.72,10.53,10.53c0,2.21-.69,4.26-1.86,5.96.44.48.83,1.01,1.19,1.56,1.6-2.09,2.56-4.69,2.56-7.52,0-6.85-5.57-12.42-12.42-12.42Z"/>
  <path class="cls-2" d="m79.18,50.36c3.59,0,6.77-1.81,8.67-4.57-.83-.91-1.81-1.7-2.89-2.31-.64-.36-1.43-.26-2,.21-1.12.92-2.19,1.34-3.81,1.34s-2.56-.44-3.73-1.39c-.56-.45-1.34-.53-1.97-.18-1.1.62-2.09,1.41-2.93,2.33,1.9,2.76,5.08,4.57,8.67,4.57Z"/>
  <path class="cls-2" d="m79.18,50.36c-3.59,0-6.77-1.81-8.67-4.57-.44.48-.83,1.01-1.19,1.57,2.27,2.97,5.84,4.89,9.86,4.89s7.59-1.93,9.86-4.9c-.36-.55-.75-1.08-1.19-1.56-1.9,2.75-5.07,4.57-8.67,4.57Z"/>
  <circle class="cls-2" cx="79.18" cy="38.34" r="5.41"/>
</svg>