<?xml version="1.0" encoding="utf-8"?>
<!-- Generator: Adobe Illustrator 24.3.0, SVG Export Plug-In . SVG Version: 6.00 Build 0)  -->
<svg version="1.1" xmlns="http://www.w3.org/2000/svg" xmlns:xlink="http://www.w3.org/1999/xlink" x="0px" y="0px"
	 viewBox="0 0 120 120" enable-background="new 0 0 120 120" xml:space="preserve">
<g id="Layer_1" display="none">
</g>
<g id="Layer_4" display="none">
	<g id="House" display="inline">
	</g>
</g>
<g id="Layer_5" display="none">
</g>
<g id="Layer_9" display="none">
</g>
<g id="Layer_19">
</g>
<g id="Layer_18">
</g>
<g id="Layer_15">
</g>
<g id="Layer_10_copy">
</g>
<g id="Layer_11">
</g>
<g id="Layer_10">
</g>
<g id="Layer_7">
</g>
<g id="Layer_6">
</g>
<g id="Layer_3">
	<g>
		<g>
			<polygon fill="#FFFFFF" points="79.01,81.71 44.28,81.71 30.81,70.41 30.81,59.76 44.28,48.46 67.88,48.46 67.88,51 45.21,51 
				33.36,60.95 33.36,69.22 45.21,79.17 76.47,79.17 76.47,59.61 79.01,59.61 			"/>
		</g>
		<g>
			<path fill="#FFFFFF" d="M46.04,70.3c-2.87,0-5.21-2.34-5.21-5.21c0-2.87,2.34-5.21,5.21-5.21c2.87,0,5.21,2.34,5.21,5.21
				C51.26,67.96,48.92,70.3,46.04,70.3z M46.04,62.41c-1.47,0-2.67,1.2-2.67,2.67c0,1.47,1.2,2.67,2.67,2.67
				c1.47,0,2.67-1.2,2.67-2.67C48.71,63.61,47.52,62.41,46.04,62.41z"/>
		</g>
		<g>
			<g>
				<path fill="#FFFFFF" d="M86.64,57.07v-1.29c0-8.24-6.71-14.95-14.95-14.95h-1.27v-2.54h1.27c9.64,0,17.49,7.85,17.49,17.49v1.27
					L86.64,57.07z"/>
			</g>
			<g>
				<path fill="#FFFFFF" d="M81.56,57.07v-1.29c0-5.44-4.42-9.86-9.86-9.86h-1.27v-2.54h1.27c6.84,0,12.41,5.57,12.41,12.41v1.27
					L81.56,57.07z"/>
			</g>
			<g>
				<path fill="#FFFFFF" d="M79.02,57.07h-2.54V55.8c0-2.64-2.14-4.8-4.78-4.8h-1.27v-2.54h1.27c4.04,0,7.32,3.29,7.32,7.34V57.07z"
					/>
			</g>
		</g>
	</g>
</g>
<g id="Layer_17">
</g>
<g id="Layer_16">
</g>
<g id="Layer_2">
</g>
<g id="Layer_2_copy_2" display="none">
</g>
<g id="Layer_2_copy" display="none">
</g>
</svg>
