<?xml version="1.0" encoding="utf-8"?>
<!-- Generator: Adobe Illustrator 24.3.0, SVG Export Plug-In . SVG Version: 6.00 Build 0)  -->
<svg version="1.1" xmlns="http://www.w3.org/2000/svg" xmlns:xlink="http://www.w3.org/1999/xlink" x="0px" y="0px"
	 viewBox="0 0 120 120" enable-background="new 0 0 120 120" xml:space="preserve">
<g id="Layer_1" display="none">
</g>
<g id="Layer_4" display="none">
	<g id="House" display="inline">
	</g>
</g>
<g id="Layer_5" display="none">
</g>
<g id="Layer_9" display="none">
</g>
<g id="Layer_19">
</g>
<g id="Layer_18">
</g>
<g id="Layer_15">
</g>
<g id="Layer_10_copy">
</g>
<g id="Layer_11">
</g>
<g id="Layer_10">
</g>
<g id="Layer_7">
</g>
<g id="Layer_6">
</g>
<g id="Layer_3">
</g>
<g id="Layer_17">
</g>
<g id="Layer_16">
	<g>
		<path fill="#FFFFFF" d="M75.77,56.74h-7.73L53,47.27H40.77v-0.95l9.5-5.97h16.9v-2.54H49.54l-11.31,7.11v4.6l-1.03,1.63
			l-4.14,1.98l-1.53,13.28l12.44,25.95l19.36-9.3l-2.69-5.6l5.26,3.32l11.44-18.18l-5.28-3.33h6.24V48.96h-2.54V56.74z M45.16,88.97
			L34.14,65.98l1.28-11.14l3.99-1.92l9.5,5.98l11.02,22.98L45.16,88.97z M65.11,77.28l-6.53-4.12l-7.69-16.02l-10.12-6.37v-0.51
			l0.28-0.44h11.22L73.85,63.4L65.11,77.28z"/>
		<path fill="#FFFFFF" d="M43.33,58.81c-1.14-0.4-2.36-0.33-3.45,0.19c-1.09,0.52-1.91,1.43-2.3,2.57c-0.4,1.14-0.33,2.36,0.19,3.45
			c0.77,1.62,2.39,2.56,4.08,2.56c0.65,0,1.32-0.14,1.94-0.44c2.24-1.08,3.19-3.78,2.12-6.02C45.38,60.03,44.47,59.21,43.33,58.81z
			 M42.68,64.84c-0.98,0.47-2.16,0.05-2.63-0.92c-0.23-0.48-0.26-1.01-0.08-1.51c0.17-0.49,0.53-0.89,1.01-1.12l0,0
			c0.27-0.13,0.56-0.19,0.85-0.19c0.22,0,0.44,0.04,0.66,0.11c0.5,0.17,0.89,0.53,1.12,1.01C44.08,63.2,43.66,64.38,42.68,64.84z"/>
		<path fill="#FFFFFF" d="M70.98,27.64h-1.27v2.54h1.27c8.24,0,14.95,6.71,14.95,14.95v1.29l2.54-0.02v-1.27
			C88.47,35.49,80.63,27.64,70.98,27.64z"/>
		<path fill="#FFFFFF" d="M70.98,32.72h-1.27v2.54h1.27c5.44,0,9.86,4.43,9.86,9.86v1.29l2.54-0.02v-1.27
			C83.39,38.29,77.82,32.72,70.98,32.72z"/>
		<path fill="#FFFFFF" d="M75.76,45.15v1.27h2.54v-1.27c0-4.05-3.28-7.34-7.32-7.34h-1.27v2.54h1.27
			C73.62,40.35,75.76,42.5,75.76,45.15z"/>
	</g>
</g>
<g id="Layer_2">
</g>
<g id="Layer_2_copy_2" display="none">
</g>
<g id="Layer_2_copy" display="none">
</g>
</svg>
