<?xml version="1.0" encoding="utf-8"?>
<!-- Generator: Adobe Illustrator 24.3.0, SVG Export Plug-In . SVG Version: 6.00 Build 0)  -->
<svg version="1.1" xmlns="http://www.w3.org/2000/svg" xmlns:xlink="http://www.w3.org/1999/xlink" x="0px" y="0px"
	 viewBox="0 0 120 120" enable-background="new 0 0 120 120" xml:space="preserve">
<g id="Layer_1" display="none">
</g>
<g id="Layer_4" display="none">
	<g id="House" display="inline">
	</g>
</g>
<g id="Layer_5" display="none">
</g>
<g id="Layer_9" display="none">
</g>
<g id="Layer_19">
</g>
<g id="Layer_18">
</g>
<g id="Layer_15">
</g>
<g id="Layer_10_copy">
</g>
<g id="Layer_11">
</g>
<g id="Layer_10">
	<g>
		<path fill="#FFFFFF" d="M44.98,70.65c-3.04,0-5.51,2.47-5.51,5.51c0,3.04,2.47,5.51,5.51,5.51c3.04,0,5.51-2.47,5.51-5.51
			C50.49,73.12,48.02,70.65,44.98,70.65z M44.98,79.13c-1.64,0-2.97-1.33-2.97-2.97c0-1.64,1.33-2.97,2.97-2.97s2.97,1.33,2.97,2.97
			C47.95,77.8,46.62,79.13,44.98,79.13z"/>
		<path fill="#FFFFFF" d="M75.43,70.65c-3.04,0-5.51,2.47-5.51,5.51c0,3.04,2.47,5.51,5.51,5.51s5.51-2.47,5.51-5.51
			C80.94,73.12,78.46,70.65,75.43,70.65z M75.43,79.13c-1.64,0-2.97-1.33-2.97-2.97c0-1.64,1.33-2.97,2.97-2.97s2.97,1.33,2.97,2.97
			C78.39,77.8,77.06,79.13,75.43,79.13z"/>
		<path fill="#FFFFFF" d="M88.55,59.99L79,46.94h-8.64v-8.61H31.39V68.5h6.87c-2.13,1.87-3.48,4.61-3.48,7.67v1.27h2.54v-1.27
			c0-4.21,3.39-7.62,7.58-7.67h0.16c4.19,0.05,7.58,3.46,7.58,7.67v1.27h2.54h10.04h2.54v-1.27c0-4.21,3.39-7.62,7.58-7.67h0.16
			c4.19,0.05,7.58,3.46,7.58,7.67l2.48,0.4l3.04-9.14L88.55,59.99z M77.71,49.48l8.3,11.35l0.04,5.12H75.54
			c-0.04,0-0.08-0.01-0.12-0.01c-0.04,0-0.08,0.01-0.12,0.01h-4.94V49.48H77.71z M33.93,65.95V40.87h33.88V53.9h0.01v12.05H45.15
			c-0.05,0-0.11-0.01-0.16-0.01c-0.06,0-0.11,0.01-0.16,0.01H33.93z M65.31,74.9H55.1c-0.32-2.54-1.57-4.79-3.39-6.4h16.12h0.87
			C66.87,70.11,65.63,72.36,65.31,74.9z M84.55,71.58c-0.59-1.18-1.42-2.22-2.4-3.09h3.43L84.55,71.58z"/>
	</g>
</g>
<g id="Layer_7">
</g>
<g id="Layer_6">
</g>
<g id="Layer_3">
</g>
<g id="Layer_17">
</g>
<g id="Layer_16">
</g>
<g id="Layer_2">
</g>
<g id="Layer_2_copy_2" display="none">
</g>
<g id="Layer_2_copy" display="none">
</g>
</svg>
