<?xml version="1.0" encoding="utf-8"?>
<!-- Generator: Adobe Illustrator 24.3.0, SVG Export Plug-In . SVG Version: 6.00 Build 0)  -->
<svg version="1.1" xmlns="http://www.w3.org/2000/svg" xmlns:xlink="http://www.w3.org/1999/xlink" x="0px" y="0px"
	 viewBox="0 0 120 120" enable-background="new 0 0 120 120" xml:space="preserve">
<g id="Layer_1" display="none">
</g>
<g id="Layer_4" display="none">
	<g id="House" display="inline">
	</g>
</g>
<g id="Layer_5" display="none">
</g>
<g id="Layer_9" display="none">
</g>
<g id="Layer_19">
</g>
<g id="Layer_18">
</g>
<g id="Layer_15">
</g>
<g id="Layer_10_copy">
</g>
<g id="Layer_11">
</g>
<g id="Layer_10">
	<g>
		<path fill="#FFFFFF" d="M50.07,75.74c-3.04,0-5.51,2.47-5.51,5.51c0,3.04,2.47,5.51,5.51,5.51c3.04,0,5.51-2.47,5.51-5.51
			C55.58,78.21,53.11,75.74,50.07,75.74z M50.07,84.21c-1.64,0-2.97-1.33-2.97-2.97c0-1.64,1.33-2.97,2.97-2.97
			c1.64,0,2.97,1.33,2.97,2.97C53.03,82.88,51.7,84.21,50.07,84.21z"/>
		<path fill="#FFFFFF" d="M80.51,75.74c-3.04,0-5.51,2.47-5.51,5.51c0,3.04,2.47,5.51,5.51,5.51s5.51-2.47,5.51-5.51
			C86.02,78.21,83.55,75.74,80.51,75.74z M80.51,84.21c-1.64,0-2.97-1.33-2.97-2.97c0-1.64,1.33-2.97,2.97-2.97s2.97,1.33,2.97,2.97
			C83.48,82.88,82.15,84.21,80.51,84.21z"/>
		<path fill="#FFFFFF" d="M93.63,65.07l-9.55-13.05h-8.64v-8.61H47.61v2.54H72.9v13.03h0.01v12.05H50.23
			c-0.05,0-0.11-0.01-0.16-0.01c-0.06,0-0.11,0.01-0.16,0.01H39.02V54.56h-2.54v19.02h6.87c-2.13,1.87-3.48,4.61-3.48,7.67v1.27
			h2.54v-1.27c0-4.21,3.39-7.62,7.58-7.67h0.16c4.19,0.05,7.58,3.46,7.58,7.67v1.27h2.54h10.04h2.54v-1.27
			c0-4.21,3.39-7.62,7.58-7.67h0.16c4.19,0.05,7.58,3.46,7.58,7.67l2.48,0.4l3.04-9.14L93.63,65.07z M75.45,54.56h7.34l8.3,11.35
			l0.04,5.13H80.63c-0.04,0-0.08-0.01-0.12-0.01c-0.04,0-0.08,0.01-0.12,0.01h-4.94V54.56z M70.4,79.98H60.18
			c-0.32-2.54-1.57-4.79-3.39-6.4h16.99C71.95,75.19,70.71,77.44,70.4,79.98z M89.63,76.67c-0.59-1.18-1.42-2.22-2.4-3.09h3.43
			L89.63,76.67z"/>
		<path fill="#FFFFFF" d="M43.8,35.79h1.27v-2.54H43.8c-9.64,0-17.49,7.85-17.49,17.49v1.29l2.54-0.02v-1.27
			C28.85,42.49,35.56,35.79,43.8,35.79z"/>
		<path fill="#FFFFFF" d="M43.8,40.87h1.27v-2.54H43.8c-6.84,0-12.41,5.57-12.41,12.41v1.29l2.54-0.02v-1.27
			C33.93,45.3,38.36,40.87,43.8,40.87z"/>
		<path fill="#FFFFFF" d="M36.48,50.75v1.27h2.54v-1.27c0-2.64,2.14-4.8,4.78-4.8h1.27v-2.54H43.8
			C39.76,43.41,36.48,46.71,36.48,50.75z"/>
	</g>
</g>
<g id="Layer_7">
</g>
<g id="Layer_6">
</g>
<g id="Layer_3">
</g>
<g id="Layer_17">
</g>
<g id="Layer_16">
</g>
<g id="Layer_2">
</g>
<g id="Layer_2_copy_2" display="none">
</g>
<g id="Layer_2_copy" display="none">
</g>
</svg>
