<?xml version="1.0" encoding="utf-8"?>
<!-- Generator: Adobe Illustrator 24.3.0, SVG Export Plug-In . SVG Version: 6.00 Build 0)  -->
<svg version="1.1" xmlns="http://www.w3.org/2000/svg" xmlns:xlink="http://www.w3.org/1999/xlink" x="0px" y="0px"
	 viewBox="0 0 120 120" enable-background="new 0 0 120 120" xml:space="preserve">
<g id="Layer_1" display="none">
</g>
<g id="Layer_4" display="none">
	<g id="House" display="inline">
	</g>
</g>
<g id="Layer_5" display="none">
</g>
<g id="Layer_9" display="none">
</g>
<g id="Layer_19">
</g>
<g id="Layer_18">
</g>
<g id="Layer_15">
</g>
<g id="Layer_10_copy">
	<g>
		<path fill="#FFFFFF" d="M85.44,41.52c-2.54-9.3-12.18-14.8-21.51-12.26l-1.22,0.37l0.71,2.41l1.21-0.33
			c7.96-2.17,16.19,2.53,18.36,10.48l0.34,1.23l2.45-0.67L85.44,41.52z"/>
		<path fill="#FFFFFF" d="M78.42,44.76l2.45-0.67l-0.33-1.23c-1.8-6.6-8.63-10.5-15.27-8.69l-1.22,0.37l0.71,2.41l1.21-0.33
			c5.24-1.43,10.68,1.67,12.11,6.92L78.42,44.76z"/>
		<path fill="#FFFFFF" d="M66.62,39.07l-1.23,0.33l0.67,2.45l1.23-0.33c2.55-0.7,5.19,0.81,5.88,3.35l0.34,1.23l2.45-0.67
			l-0.33-1.23C74.56,40.31,70.53,38.01,66.62,39.07z"/>
		<path fill="#FFFFFF" d="M48.95,51.73v14.9H41.5v17.44h14.9h2.54h14.9V66.64H66.4v-14.9h-7.45H56.4H48.95z M56.4,81.54H44.04V69.18
			h4.91v7.45h2.54v-7.45h4.91V81.54z M71.31,69.18v12.36H58.95V69.18h4.91v7.45h2.54v-7.45H71.31z M63.86,54.28v12.36h-4.91H56.4
			H51.5V54.28h4.91v7.45h2.54v-7.45H63.86z"/>
		<path fill="#FFFFFF" d="M34.23,53.19v38.17h46.89V53.19L57.67,39.8L34.23,53.19z M78.58,88.81H36.77V54.66l20.9-11.94l20.9,11.94
			V88.81z"/>
	</g>
</g>
<g id="Layer_11">
</g>
<g id="Layer_10">
</g>
<g id="Layer_7">
</g>
<g id="Layer_6">
</g>
<g id="Layer_3">
</g>
<g id="Layer_17">
</g>
<g id="Layer_16">
</g>
<g id="Layer_2">
</g>
<g id="Layer_2_copy_2" display="none">
</g>
<g id="Layer_2_copy" display="none">
</g>
</svg>
