<?xml version="1.0" encoding="UTF-8"?>
<svg id="Layer_1" data-name="Layer 1" xmlns="http://www.w3.org/2000/svg" viewBox="0 0 120 120">
  <defs>
    <style>
      .cls-1 {
        fill: #231f20;
      }
    </style>
  </defs>
  <g>
    <polygon class="cls-1" points="43.03 37.15 48.68 40.42 60 33.89 54.34 30.62 43.03 37.15"/>
    <polygon class="cls-1" points="71.3 33.89 85.44 25.73 85.44 32.26 91.09 28.99 91.09 15.94 65.65 30.62 71.3 33.89"/>
    <path class="cls-1" d="m115.05,70.65l-1.42-2.45-2.45,1.41c-2.57,1.48-5.65,1.92-8.58,1.13-2.88-.77-5.3-2.61-6.82-5.18l-.05-.09,6.66-3.85v-6.53l-42.4,24.48,5.64,3.26,25.2-14.54.05.09c1.47,2.59,1.85,5.6,1.08,8.48-.26.97-.64,1.88-1.13,2.74-.99,1.71-2.42,3.13-4.14,4.13l-2.45,1.41,1.41,2.44c2.26,3.92,5.92,6.74,10.3,7.91,1.46.39,2.93.57,4.38.57,7.49,0,14.36-5,16.39-12.57,1.18-4.38.57-8.95-1.69-12.88Zm-3.77,11.4c-1.62,6.03-7.83,9.61-13.85,8-2.09-.56-3.92-1.67-5.35-3.21,1.46-1.25,2.69-2.73,3.64-4.39.75-1.27,1.32-2.65,1.71-4.11.29-1.1.48-2.21.55-3.32,1,.49,2.06.89,3.16,1.18,3.33.9,6.84.74,10.03-.39.62,2.01.67,4.15.11,6.23Z"/>
    <polygon class="cls-1" points="60 86.11 28.9 104.07 17.6 104.07 54.35 82.85 60 86.11"/>
    <path class="cls-1" d="m71.84,86.42l-6.19-3.57-5.64-3.26-42.4-24.47v6.52l6.66,3.85-.05.09c-1.52,2.57-3.95,4.41-6.83,5.18-2.9.78-6,.35-8.57-1.13l-2.45-1.41-1.42,2.45c-2.27,3.92-2.87,8.5-1.69,12.88,2.03,7.57,8.9,12.57,16.4,12.57,1.45,0,2.91-.19,4.38-.57,4.38-1.18,8.03-3.99,10.29-7.91l1.41-2.44-2.44-1.41c-1.72-1-3.15-2.42-4.14-4.15-.49-.85-.88-1.76-1.13-2.72-.77-2.88-.39-5.9,1.08-8.49l.05-.09,24.21,13.97.98.57,5.65,3.26,8.89,5.14,22.2,12.82h11.3l-30.56-17.64Zm-43.92.42c-1.43,1.53-3.26,2.65-5.35,3.21-6.02,1.61-12.23-1.98-13.85-8-.56-2.08-.51-4.22.11-6.23,3.2,1.13,6.71,1.28,10.03.39,1.1-.29,2.16-.7,3.16-1.18.07,1.11.26,2.22.55,3.33.39,1.45.96,2.83,1.7,4.09.95,1.66,2.19,3.15,3.65,4.4Z"/>
  </g>
  <g>
    <polygon class="cls-1" points="68.48 51.84 68.48 55.1 62.83 58.38 62.83 55.1 60 53.48 65.65 50.21 68.48 51.84"/>
    <polygon class="cls-1" points="68.48 61.63 68.48 68.17 62.83 71.43 62.83 64.9 68.48 61.63"/>
    <polygon class="cls-1" points="62.83 55.1 62.83 71.43 60 73.06 59.99 73.06 40.21 61.63 40.21 55.11 57.17 64.9 57.17 58.38 28.91 42.05 28.91 15.93 48.69 27.36 43.04 30.62 34.56 25.73 34.56 38.79 59.81 53.37 60 53.48 62.83 55.1"/>
    <polygon class="cls-1" points="54.34 43.68 60 46.95 65.65 43.68 65.65 37.15 54.34 43.68"/>
    <polygon class="cls-1" points="79.78 42.05 79.78 35.52 74.13 38.78 74.13 42.05 65.65 37.15 65.65 43.68 74.13 48.57 74.13 64.9 79.78 61.63 79.78 48.57 91.09 42.05 91.09 35.52 79.78 42.05"/>
  </g>
</svg>